# xmcd
#
# Track frame offsets:
#	150
#	24594
#	42145
#	68427
#	87762
#	117030
#	138407
#	171120
#	189362
#	206377
#	226807
#	257162
#
# Disc length: 3537 seconds
#
# Revision: 1
# Processed by: cddbd v1.4PL0 Copyright (c) Steve Scherf et al.
# Submitted via: audiograbber 1.80
#
DISCID=900dcf0c
DTITLE=Rev. Milton Brunson's Thompson Community Singers - Shout
DYEAR=1900
DGENRE=
TTITLE0=Shout
TTITLE1=By Your Word
TTITLE2=Keep Your Loving Arms Around Me
TTITLE3=Trust In Jesus
TTITLE4=Can't Look Back Now
TTITLE5=Worthy
TTITLE6=You're The Reason
TTITLE7=You Don't Know Like I Know
TTITLE8=Let's Pray
TTITLE9=He Can Deliver
TTITLE10=Am I A Soldier
TTITLE11=Shout (Praise)
EXTD=
EXTT0=
EXTT1=
EXTT2=
EXTT3=
EXTT4=
EXTT5=
EXTT6=
EXTT7=
EXTT8=
EXTT9=
EXTT10=
EXTT11=
PLAYORDER=
